<?xml version="1.0" encoding="utf-8"?>
<svg xmlns="http://www.w3.org/2000/svg" viewBox="0 0 40 40" width="480" height="480">
  <path fill="#dff0fe" d="M2.207,25.5H9.5V25c0-11.379,12.697-20.318,29-20.497v5c-13.061,0.175-24,7.2-24,15.497v0.5h7.293L12,35.293L2.207,25.5z" />
  <path fill="#4788c7" d="M38,5.011v4.002C24.891,9.363,14,16.541,14,25v1h1h5.586L12,34.586L3.414,26H9h1v-1C10,14.016,22.219,5.362,38,5.011 M39,4C22.178,4,9,13.224,9,25H1l11,11l11-11h-8c0-8.131,10.991-15,24-15V4L39,4z" />
</svg>