<?xml version="1.0" encoding="utf-8"?>
<svg xmlns="http://www.w3.org/2000/svg" x="0" y="0" viewBox="0 0 128 128" width="512" height="512">
  <path fill="#fff" d="M124,58l0,56c0,5.5-4.5,10-10,10l-100,0c-5.5,0-10-4.5-10-10l0-56c0-5.5,4.5-10,10-10l100,0 C119.5,48,124,52.5,124,58z" />
  <path fill="#444b54" d="M114,127H14c-7.2,0-13-5.8-13-13V58c0-7.2,5.8-13,13-13h100c7.2,0,13,5.8,13,13v56 C127,121.2,121.2,127,114,127z M14,51c-3.9,0-7,3.1-7,7v56c0,3.9,3.1,7,7,7h100c3.9,0,7-3.1,7-7V58c0-3.9-3.1-7-7-7H14z" />
  <path fill="#71c2ff" d="M64 66A20 20 0 1 0 64 106A20 20 0 1 0 64 66Z" />
  <path fill="#444b54" d="M98.6 18.4l-15-15c-1.2-1.2-3.1-1.2-4.2 0-1.2 1.2-1.2 3.1 0 4.2l9.9 9.9H57.5c-1.7 0-3 1.3-3 3s1.3 3 3 3h31.8l-9.9 9.9c-1.2 1.2-1.2 3.1 0 4.2.6.6 1.4.9 2.1.9s1.5-.3 2.1-.9l15-15C99.8 21.4 99.8 19.6 98.6 18.4zM37.5 17.5A3 3 0 1 0 37.5 23.5 3 3 0 1 0 37.5 17.5z" />
</svg>