<?xml version="1.0" encoding="utf-8"?>
<svg xmlns="http://www.w3.org/2000/svg" viewBox="0 0 80 80" width="320" height="320">
  <path fill="#f78f8f" d="M35.5 29.5L35.5 17.5 26.154 17.5 40 2.731 53.846 17.5 44.5 17.5 44.5 29.5z" />
  <path fill="#c74343" d="M40,3.462L52.692,17H45h-1v1v11h-8V18v-1h-1h-7.692L40,3.462 M40,2L25,18h10v12h10V18h10L40,2L40,2z" />
  <path fill="#bae0bd" d="M6.5 68.5H73.5V75.5H6.5z" />
  <path fill="#5e9c76" d="M73,69v6H7v-6H73 M74,68H6v8h68V68L74,68z" />
  <path fill="#bae0bd" d="M4.5 64.5H75.5V71.5H4.5z" />
  <path fill="#5e9c76" d="M75,65v6H5v-6H75 M76,64H4v8h72V64L76,64z" />
  <path fill="#bae0bd" d="M2.5 24.5H77.5V67.5H2.5z" />
  <path fill="#5e9c76" d="M77,25v42H3V25H77 M78,24H2v44h76V24L78,24z" />
  <path fill="#fff" d="M40,61.5c-8.547,0-15.5-6.953-15.5-15.5S31.453,30.5,40,30.5S55.5,37.453,55.5,46 S48.547,61.5,40,61.5z" />
  <path fill="#5e9c76" d="M40,31c8.271,0,15,6.729,15,15s-6.729,15-15,15s-15-6.729-15-15S31.729,31,40,31 M40,30 c-8.837,0-16,7.163-16,16s7.163,16,16,16s16-7.163,16-16S48.837,30,40,30L40,30z" />
  <path fill="#fff" d="M66 40.5A5.5 5.5 0 1 0 66 51.5A5.5 5.5 0 1 0 66 40.5Z" />
  <path fill="#5e9c76" d="M66,41c2.757,0,5,2.243,5,5s-2.243,5-5,5s-5-2.243-5-5S63.243,41,66,41 M66,40c-3.314,0-6,2.686-6,6 s2.686,6,6,6c3.314,0,6-2.686,6-6S69.314,40,66,40L66,40z" />
  <path fill="#fff" d="M14 40.5A5.5 5.5 0 1 0 14 51.5A5.5 5.5 0 1 0 14 40.5Z" />
  <path fill="#5e9c76" d="M14,41c2.757,0,5,2.243,5,5s-2.243,5-5,5s-5-2.243-5-5S11.243,41,14,41 M14,40c-3.314,0-6,2.686-6,6 s2.686,6,6,6s6-2.686,6-6S17.314,40,14,40L14,40z" />
</svg>