<?xml version="1.0" encoding="utf-8"?>
<svg xmlns="http://www.w3.org/2000/svg" viewBox="0 0 100 100" width="400" height="400">
  <path d="M59 17C47.413593 17 38 26.413593 38 38L38 60.585938L24.707031 47.292969 A 1.0001 1.0001 0 0 0 23.292969 47.292969L16.292969 54.292969 A 1.0001 1.0001 0 0 0 16.292969 55.707031L43.292969 82.707031 A 1.0001 1.0001 0 0 0 44.707031 82.707031L71.707031 55.707031 A 1.0001 1.0001 0 0 0 71.707031 54.292969L64.707031 47.292969 A 1.0001 1.0001 0 0 0 63.292969 47.292969L50 60.585938L50 38C50 33.017407 54.017407 29 59 29L83 29 A 1.0001 1.0001 0 0 0 84 28L84 18 A 1.0001 1.0001 0 0 0 83 17L59 17 z M 59 19L82 19L82 27L59 27C52.936593 27 48 31.936593 48 38L48 63 A 1.0001 1.0001 0 0 0 49.707031 63.707031L64 49.414062L69.585938 55L44 80.585938L18.414062 55L24 49.414062L38.292969 63.707031 A 1.0001 1.0001 0 0 0 40 63L40 38C40 27.494407 48.494407 19 59 19 z M 24.494141 55.494141 A 0.50005 0.50005 0 0 0 24.146484 56.353516L32.146484 64.353516 A 0.50005 0.50005 0 1 0 32.853516 63.646484L24.853516 55.646484 A 0.50005 0.50005 0 0 0 24.494141 55.494141 z M 63.490234 55.496094 A 0.50005 0.50005 0 0 0 63.146484 55.646484L48.146484 70.646484 A 0.50005 0.50005 0 1 0 48.853516 71.353516L63.853516 56.353516 A 0.50005 0.50005 0 0 0 63.490234 55.496094 z M 37.494141 68.494141 A 0.50005 0.50005 0 0 0 37.146484 69.353516L39.646484 71.853516 A 0.50005 0.50005 0 1 0 40.353516 71.146484L37.853516 68.646484 A 0.50005 0.50005 0 0 0 37.494141 68.494141 z M 42.494141 73.494141 A 0.50005 0.50005 0 0 0 42.146484 74.353516L43.646484 75.853516 A 0.50005 0.50005 0 1 0 44.353516 75.146484L42.853516 73.646484 A 0.50005 0.50005 0 0 0 42.494141 73.494141 z" fill="#5B5B5B" />
</svg>