<?xml version="1.0" encoding="utf-8"?>
<svg xmlns="http://www.w3.org/2000/svg" width="480" height="480" viewBox="0 0 512 512">
  <path fill="#14B6B9" d="M390.9 50.7c-7.8-1.9-15.6-3-23.5-4.5-13.6-2.5-26.9-7.7-40.7-8.9-.9.5-2 .7-3.2.7-6.8-.5-14.4 3.3-20.6 5.6-8.1 3.1-16.2 5.7-24.4 8.5-19.5 6.7-39 13.6-58.9 19.1-10.1 2.8-19.9 6.1-29.8 9.4-9 3-18.1 6.9-27.4 8.8-6.2 1.2-12.5 2.3-18.6 3.8-3.4.9-7.1 1.7-10.4 3.2 0 0 .1.1.1.1 15.1 5.2 30.6 9.3 45.8 14 15.2 4.7 29.3 14.1 45.4 15.7 1.1.1 2 .5 2.6 1 8.4-5.1 19.4-7.3 28-9.8 17-4.8 32.9-12.4 49.1-19.2 19.2-8.1 38.8-15.1 57.9-23.3 9.9-4.2 19.2-9.2 28.8-14.1 4.5-2.3 10.1-3.8 14.9-6.2C401 53.3 396 52 390.9 50.7zM259.5 333.2c-1.1-11.7-2.8-23.4-4.5-35.1-3.4-24.5-7.1-49.1-12.5-73.2-2.7-12-6-23.7-10.1-35.4-3.7-10.5-8.4-21-11.2-31.8-1.4-5.5-2.8-11.3-3.1-17-.1-1.1 0-2.2.2-3.3 0-.3 0-.6.1-.9-15-2.7-28.5-11.2-43-15.6-14.8-4.5-29.8-8.6-44.4-13.5.9 1.9 1.9 3.8 2.1 5.9.6 5.3.8 10.6 1.5 15.9 1.4 10.6 5.6 20.9 9.4 30.9 8 20.6 14 41.8 21.2 62.7 7.3 21.1 15 42.1 20.9 63.6 3 11 5.2 22.1 7.2 33.3.8 4.3 1.4 8.7 2.2 13 .3 1.7.7 3.4 1.3 5 .2.7.4 1.1.5 1.4 1.4.9 2.4 2.3 2.8 3.9 10.8 1.9 21.4 4.2 32.1 6.6 9.9 2.3 20 7.8 30.3 7.8C260.9 349.3 260.2 341.3 259.5 333.2zM191.5 339.1c1.5-.9 3-1.1 4.3-.7C194.8 338 193.4 337.9 191.5 339.1zM415.8 296.2c-4.8-1-9.7-1.6-14.5-2.5-12.9-2.5-25.2-7.1-38.5-7.5-.6 3.1-1.2 6.2-1.8 9.3-1.8 8.4-3.7 16.7-5.3 25.2-.5 2.8-1.1 5.7-1.5 8.5 22.6-10.3 44.5-22.3 67.7-31.4C420 297 417.8 296.6 415.8 296.2z" />
  <path fill="#74CCCF" d="M351.6,342.3c-0.9,0.7-1.9,1.1-3.1,1c-1.7,0.1-3.1-0.8-4-2.1c-2.1-2.3-2-5.5-1.7-8.6c1.3-15.3,5.7-30.3,8.7-45.3c5.2-25.9,6.7-52.4,11.2-78.4c2.5-14.4,6.2-28.2,10.3-42.2c3.6-12.6,6.3-25.5,9.2-38.3c4.7-21.1,10.2-42.2,20.6-61.2c-1.3,0.5-2.6,1.1-3.8,1.8c-9.2,4.7-18.2,9.9-27.7,14c-19.1,8.2-38.7,15.3-57.9,23.3c-16.8,7-33.3,15.4-50.9,20.4c-7,2-14,3.8-20.8,6.3c-4.2,1.5-8.8,3.2-12.2,6.3c-0.1,0.3-0.2,0.5-0.4,0.7c0.1,1.1,0.2,2.2,0.4,3.3c0.4,2.4,0.8,4.8,1.3,7.2c1.7,7.7,4.8,15.2,7.5,22.6c3.7,10.2,7.5,20.5,10.5,30.9c3,10.4,5.1,21.2,7.2,31.9c4.2,21.6,7.5,43.3,10.5,65.1c1.4,10.4,3,20.8,3.9,31.3c0.8,8.6,1.4,17.3,3.3,25.8c2.8,0.7,4.8,3.9,4.2,6.8c0.3,2.8-1.2,5.8-4.9,6.1c-3.6,0.3-6.7,3.4-9.8,5.2c-3.3,1.9-6.8,3.5-10.1,5.2c-8.1,4-16.4,7.7-24.7,11.4c-13.2,5.9-25.9,13-39,19c8.1,6,17.7,9.7,26.5,14.5c12.2,6.5,24.1,13.8,36.3,20.3c12.5,6.7,25.4,12.7,37.7,19.8c9,5.2,17.9,10.8,26.6,16.6c2.9-6.1,8.4-10.4,12.1-16.1c5-7.8,9.7-15.8,14.9-23.5c10.7-15.6,24.1-29.1,35.3-44.4c12.1-16.3,22.9-33.6,32.7-51.4c4.2-7.7,8.4-15.5,12.1-23.5c2.6-5.7,5.4-11.6,6.8-17.8C403.3,316.3,378.1,330.8,351.6,342.3z" />
  <path fill="#14B6B9" d="M294.3 481.6c-13.7-8.2-27.8-15.2-42-22.6-13.9-7.3-27.4-15.7-41.3-22.9-11.7-6.1-24.4-11.1-34.1-20.4-1-1-1.5-2.1-1.7-3.2-8.7-1.4-17-5.1-25.7-6.9-8.1-1.6-16.1-3.3-24.2-4.4.2.1.4.3.7.4 4 2.3 8.1 4.3 12.4 6.1 11.5 4.9 22 12.7 32.1 19.9 12.6 9 25.5 16.5 39.4 23.5 10.7 5.4 20.2 12.7 31 17.9.5 0 1.1 0 1.8.2 13.2 3.8 26.6 6.9 40.1 9.6 4.2.8 8.4 2.2 12.6 3.5C295 482.1 294.7 481.9 294.3 481.6zM231.8 360.6c-10.1-2.3-20.2-4.5-30.4-6.4-.5 1.1-1.5 2-3 2.6-16.6 6.2-30.3 18-46.6 24.7-8.7 3.6-18.3 5.3-27.2 8.6 7.8.9 15.5 2.3 23.3 3.9 6.1 1.2 11.9 2.8 17.8 4.7 4.6 1.5 9.6 3.2 14.5 3.4 1 0 1.8.3 2.5.6 15.5-6.7 30.1-15.2 45.6-21.8 9-3.8 17.6-8.5 26.5-12.5.6-.3 1.1-.5 1.7-.8C248.1 366.2 240.1 362.5 231.8 360.6z" />
  <path fill="#010101" d="M437.8,298.5c-0.3-1.3-1.1-2.5-2.1-3.4c-0.2-0.9-0.7-1.8-1.4-2.6c-6.7-7.2-19.6-7.8-28.7-9.3c-13.9-2.3-26.8-7-40.9-7.9c2.5-16.6,4.2-33.4,6.6-50c2.1-14.8,4.8-29.5,8.7-43.9c3.5-12.8,7.3-25.4,10.2-38.4c5.8-25.9,10.9-52.4,24.9-75.4c1.1-1.9,2.4-3.6,3.6-5.4c1-1.3,1.2-2.7,1.1-4.1c0.2-0.2,0.3-0.3,0.5-0.5c0.2-0.1,0.3-0.3,0.5-0.4c1.8-1.9,2.2-3.5,2.4-6.1c0.1-2.4-2.3-4.5-4.4-5c-8-1.7-15.9-3.8-23.8-5.8c-8.4-2.2-16.8-3.5-25.3-4.9c-16.3-2.8-31.6-9.1-48.3-9.3c-1.7,0-2.9,0.6-3.7,1.5c-4.2,0.7-8.4,2.1-12.5,3.5c-8.2,2.9-16.3,5.9-24.5,8.7c-20.2,6.8-40.3,14-60.8,20c-10,2.9-19.9,5.9-29.8,9.2c-9.6,3.2-19.4,7.6-29.3,9.6c-12.2,2.4-28,3.4-38.1,11.4c-1.4,1.1-2,2.5-2.1,3.8c-1.1,0.7-2,1.9-2.2,3.7c-0.6,5.1,0.4,9.3,2.4,13.9c2.4,5.3,2.2,11,2.8,16.7c1.1,11.7,5.4,22.8,9.5,33.7c8.8,22.9,15.6,46.5,23.6,69.7c8.1,23.5,16.5,46.9,22.4,71.1c2.7,10.8,3.7,22,5.9,32.9c0.7,3.5,2.3,9.5,5.4,12.3c0,0.1,0,0.3,0,0.4c-14.7,6.4-27.5,16.4-42.1,22.9c-14.1,6.2-30.3,7-42.7,16.9c-2.9,2.3-2.6,5.8-0.9,8.1c0.6,1.9,2.1,3.4,4.4,3.8c2.8,6.8,11.5,11.4,17.4,14.3c3.8,1.9,7.8,3.5,11.7,5.2c7.2,3,14.1,8.7,20.4,13.1c6.6,4.6,12.9,9.7,19.7,13.9c7,4.3,14.3,8.1,21.6,11.9c7.1,3.6,13.8,7.4,20.6,11.6c6.9,4.4,14,8.6,21.7,11.6c1.5,0.6,2.9,0.5,4.1,0c12,3.2,24.1,6,36.3,8.4c13,2.6,25,8.8,38.5,8.1c3.8-0.2,5.3-3.5,4.8-6.4c0.1-0.6,0.2-1.2,0.2-1.8c0.7-1,1-2.3,0.9-3.5c1.4-2.6,3.7-4.7,5.6-6.8c2.6-2.9,4.7-6,6.9-9.3c5.2-8.1,10-16.4,15.6-24.2c11.4-15.8,25-29.8,36.4-45.7c11.4-15.8,21.6-32.5,30.9-49.5c7.7-14.1,17.3-30,19.7-46.2C442.5,301.4,440.3,299.2,437.8,298.5z M401.3,293.6c4.8,0.9,9.7,1.6,14.5,2.5c2,0.4,4.1,0.8,6.2,1.6c-23.2,9.1-45.1,21.1-67.7,31.4c0.4-2.8,1-5.7,1.5-8.5c1.6-8.4,3.5-16.8,5.3-25.2c0.7-3.1,1.3-6.2,1.8-9.3C376.1,286.5,388.4,291.1,401.3,293.6z M143.8,93.3c6.1-1.6,12.4-2.6,18.6-3.8c9.3-1.9,18.4-5.8,27.4-8.8c9.9-3.3,19.8-6.6,29.8-9.4c19.9-5.6,39.4-12.5,58.9-19.1c8.2-2.8,16.3-5.4,24.4-8.5c6.2-2.4,13.8-6.1,20.6-5.6c1.2,0.1,2.3-0.2,3.2-0.7c13.8,1.2,27.1,6.4,40.7,8.9c7.9,1.5,15.7,2.5,23.5,4.5c5,1.2,10.1,2.6,15.1,3.9c-4.8,2.4-10.4,3.9-14.9,6.2c-9.6,4.9-18.9,9.9-28.8,14.1c-19.1,8.2-38.8,15.1-57.9,23.3c-16.2,6.9-32.2,14.4-49.1,19.2c-8.6,2.4-19.7,4.7-28,9.8c-0.7-0.5-1.5-0.9-2.6-1c-16.1-1.6-30.1-11-45.4-15.7c-15.3-4.7-30.7-8.8-45.8-14c0-0.1-0.1-0.1-0.1-0.1C136.7,95,140.3,94.2,143.8,93.3z M186,286.3c-5.9-21.5-13.6-42.5-20.9-63.6c-7.2-20.9-13.2-42.1-21.2-62.7c-3.9-10-8-20.2-9.4-30.9c-0.7-5.3-0.9-10.6-1.5-15.9c-0.2-2.1-1.2-4-2.1-5.9c14.7,5,29.6,9.1,44.4,13.5c14.5,4.4,28,12.9,43,15.6c-0.1,0.3-0.1,0.6-0.1,0.9c-0.2,1.1-0.3,2.3-0.2,3.3c0.3,5.7,1.6,11.5,3.1,17c2.9,10.8,7.5,21.3,11.2,31.8c4.1,11.6,7.5,23.3,10.1,35.4c5.3,24.2,9,48.7,12.5,73.2c1.6,11.7,3.4,23.4,4.5,35.1c0.7,8,1.5,16.1,2.9,24c-10.3,0-20.4-5.5-30.3-7.8c-10.6-2.4-21.3-4.7-32.1-6.6c-0.4-1.6-1.4-3-2.8-3.9c-0.1-0.3-0.3-0.7-0.5-1.4c-0.6-1.6-0.9-3.3-1.3-5c-0.8-4.3-1.5-8.7-2.2-13C191.3,308.3,189.1,297.3,186,286.3z M195.8,338.4c-1.3-0.4-2.8-0.2-4.3,0.7C193.4,337.9,194.8,338,195.8,338.4z M151.8,381.6c16.3-6.8,30-18.6,46.6-24.7c1.5-0.5,2.4-1.5,3-2.6c10.2,1.9,20.3,4.1,30.4,6.4c8.4,1.9,16.3,5.6,24.7,7c-0.5,0.3-1.1,0.6-1.7,0.8c-8.9,4-17.5,8.7-26.5,12.5c-15.5,6.6-30.1,15.1-45.6,21.8c-0.7-0.4-1.6-0.6-2.5-0.6c-4.9-0.2-9.8-1.9-14.5-3.4c-5.9-1.9-11.7-3.5-17.8-4.7c-7.7-1.6-15.5-3-23.3-3.9C133.5,386.9,143.2,385.2,151.8,381.6z M282.8,478.9c-13.5-2.7-26.9-5.9-40.1-9.6c-0.6-0.2-1.2-0.2-1.8-0.2c-10.7-5.2-20.3-12.5-31-17.9c-13.9-7-26.8-14.5-39.4-23.5c-10.2-7.3-20.6-15-32.1-19.9c-4.2-1.8-8.4-3.8-12.4-6.1c-0.2-0.1-0.4-0.2-0.7-0.4c8.1,1.1,16.2,2.7,24.2,4.4c8.7,1.8,16.9,5.4,25.7,6.9c0.1,1.1,0.7,2.2,1.7,3.2c9.6,9.3,22.4,14.2,34.1,20.4c13.9,7.3,27.3,15.6,41.3,22.9c14.1,7.4,28.3,14.3,42,22.6c0.4,0.2,0.8,0.5,1.2,0.7C291.2,481,287,479.7,282.8,478.9z M423.6,324.1c-3.7,8-7.9,15.8-12.1,23.5c-9.8,17.8-20.6,35.1-32.7,51.4c-11.2,15.2-24.6,28.8-35.3,44.4c-5.3,7.6-9.9,15.7-14.9,23.5c-3.7,5.7-9.2,10-12.1,16.1c-8.7-5.8-17.5-11.4-26.6-16.6c-12.3-7.1-25.2-13.1-37.7-19.8c-12.2-6.5-24.1-13.8-36.3-20.3c-8.9-4.8-18.4-8.5-26.5-14.5c13.2-6,25.8-13.1,39-19c8.3-3.7,16.6-7.3,24.7-11.4c3.4-1.7,6.9-3.2,10.1-5.2c3-1.8,6.1-4.9,9.8-5.2c3.6-0.3,5.2-3.3,4.9-6.1c0.6-2.9-1.4-6.1-4.2-6.8c-1.8-8.5-2.5-17.2-3.3-25.8c-0.9-10.5-2.5-20.9-3.9-31.3c-3-21.8-6.3-43.5-10.5-65.1c-2.1-10.7-4.2-21.5-7.2-31.9c-3-10.5-6.8-20.7-10.5-30.9c-2.7-7.4-5.8-14.9-7.5-22.6c-0.5-2.4-0.9-4.8-1.3-7.2c-0.2-1.1-0.3-2.2-0.4-3.3c0.2-0.2,0.3-0.5,0.4-0.7c3.3-3.1,8-4.8,12.2-6.3c6.8-2.5,13.9-4.2,20.8-6.3c17.5-5.1,34.1-13.4,50.9-20.4c19.2-8,38.8-15.1,57.9-23.3c9.5-4.1,18.5-9.3,27.7-14c1.3-0.6,2.5-1.2,3.8-1.8c-10.4,18.9-15.8,40.1-20.6,61.2c-2.9,12.8-5.6,25.7-9.2,38.3c-4,14-7.8,27.8-10.3,42.2c-4.5,26-6,52.6-11.2,78.4c-3,15-7.4,30-8.7,45.3c-0.3,3.1-0.4,6.4,1.7,8.6c0.9,1.3,2.3,2.1,4,2.1c1.2,0.1,2.3-0.3,3.1-1c26.5-11.5,51.7-26,78.9-36.1C429,312.4,426.3,318.3,423.6,324.1z" />
</svg>