<?xml version="1.0" encoding="utf-8"?>
<svg xmlns="http://www.w3.org/2000/svg" viewBox="0 0 32 32" width="512" height="512">
  <path d="M16 7C14.90625 7 14 7.90625 14 9C14 10.09375 14.90625 11 16 11C17.09375 11 18 10.09375 18 9C18 7.90625 17.09375 7 16 7 Z M 16 13C14.355469 13 13 14.355469 13 16C13 17.644531 14.355469 19 16 19C17.644531 19 19 17.644531 19 16C19 14.355469 17.644531 13 16 13 Z M 3 14C1.90625 14 1 14.90625 1 16C1 17.09375 1.90625 18 3 18C4.09375 18 5 17.09375 5 16C5 14.90625 4.09375 14 3 14 Z M 9 14C7.90625 14 7 14.90625 7 16C7 17.09375 7.90625 18 9 18C10.09375 18 11 17.09375 11 16C11 14.90625 10.09375 14 9 14 Z M 23 14C21.90625 14 21 14.90625 21 16C21 17.09375 21.90625 18 23 18C24.09375 18 25 17.09375 25 16C25 14.90625 24.09375 14 23 14 Z M 29 14C27.90625 14 27 14.90625 27 16C27 17.09375 27.90625 18 29 18C30.09375 18 31 17.09375 31 16C31 14.90625 30.09375 14 29 14 Z M 16 15C16.554688 15 17 15.445313 17 16C17 16.554688 16.554688 17 16 17C15.445313 17 15 16.554688 15 16C15 15.445313 15.445313 15 16 15 Z M 16 21C14.90625 21 14 21.90625 14 23C14 24.09375 14.90625 25 16 25C17.09375 25 18 24.09375 18 23C18 21.90625 17.09375 21 16 21Z" fill="#5B5B5B" />
</svg>